<svg width="374" height="173" viewBox="0 0 374 173" fill="none" xmlns="http://www.w3.org/2000/svg">
<g id="Group 22">
<path id="Path 3" fill-rule="evenodd" clip-rule="evenodd" d="M72.3612 139.675C148.064 163.368 225.904 202.887 305.596 130.705C385.289 58.5227 435.39 -4.7087 403.036 -86.5221C370.682 -168.336 238.614 -117.377 200.242 -190.499C161.869 -263.621 246.183 -329.984 209.833 -395.062C173.484 -460.14 145.534 -501.849 28.7179 -460.471C-88.0978 -419.092 -77.3273 -313.807 -166.16 -252.153C-254.993 -190.499 -351.104 -98.2003 -219.206 66.4938C-87.3085 231.188 -3.34138 115.981 72.3612 139.675Z" stroke="#E4E4E4"/>
<path id="Path 3 Copy" fill-rule="evenodd" clip-rule="evenodd" d="M62.895 101.751C124.478 120.991 187.8 153.081 252.629 94.4677C317.457 35.8543 358.214 -15.4907 331.895 -81.9248C305.575 -148.359 198.14 -106.98 166.924 -166.356C135.708 -225.732 204.296 -279.621 174.726 -332.465C145.157 -385.31 122.42 -419.178 27.3918 -385.578C-67.6362 -351.978 -58.8746 -266.484 -131.139 -216.42C-203.403 -166.356 -281.588 -91.4076 -174.291 42.327C-66.9941 176.062 1.31196 82.5115 62.895 101.751Z" stroke="#E4E4E4"/>
<path id="Path 3 Copy 2" fill-rule="evenodd" clip-rule="evenodd" d="M45.1881 76.5826C95.1497 92.281 146.522 118.465 199.117 70.6397C251.711 22.8147 284.777 -19.0797 263.424 -73.2859C242.071 -127.492 154.91 -93.7291 129.586 -142.176C104.261 -190.624 159.905 -234.594 135.916 -277.712C111.926 -320.829 93.4798 -348.464 16.3848 -321.048C-60.7101 -293.633 -53.602 -223.875 -112.229 -183.026C-170.856 -142.176 -234.287 -81.0233 -147.238 28.0961C-60.1892 137.215 -4.77337 60.8841 45.1881 76.5826Z" stroke="#E4E4E4"/>
<path id="Path 3 Copy 5" fill-rule="evenodd" clip-rule="evenodd" d="M26.6844 45.8163C66.9794 58.4115 108.412 79.4194 150.831 41.0481C193.25 2.67691 219.918 -30.9361 202.696 -74.427C185.475 -117.918 115.178 -90.8292 94.7527 -129.7C74.3276 -168.57 119.206 -203.848 99.858 -238.443C80.5099 -273.038 65.6326 -295.21 3.45386 -273.213C-58.7249 -251.217 -52.992 -195.248 -100.276 -162.474C-147.56 -129.7 -198.718 -80.635 -128.512 6.91428C-58.3048 94.4635 -13.6107 33.221 26.6844 45.8163Z" stroke="#E4E4E4"/>
<path id="Path 3 Copy 4" fill-rule="evenodd" clip-rule="evenodd" d="M21.9174 25.9542C54.8268 36.2494 88.6657 53.4211 123.31 22.0567C157.953 -9.30757 179.734 -36.7825 165.668 -72.3316C151.603 -107.881 94.191 -85.7386 77.5096 -117.511C60.8282 -149.283 97.4811 -178.12 81.6792 -206.397C65.8773 -234.674 53.7269 -252.797 2.94479 -234.818C-47.8373 -216.838 -43.1552 -171.09 -81.7726 -144.301C-120.39 -117.511 -162.171 -77.406 -104.833 -5.84398C-47.4942 65.718 -10.992 15.6589 21.9174 25.9542Z" stroke="#E4E4E4"/>
<path id="Path 3 Copy 3" fill-rule="evenodd" clip-rule="evenodd" d="M12.7745 11.594C39.4931 19.9543 66.9662 33.8987 95.0929 8.42906C123.22 -17.0405 140.903 -39.3518 129.483 -68.2197C118.064 -97.0876 71.4521 -79.1069 57.9088 -104.908C44.3655 -130.709 74.1232 -154.125 61.294 -177.088C48.4648 -200.051 38.6001 -214.768 -2.62898 -200.168C-43.858 -185.567 -40.0567 -148.417 -71.4094 -126.663C-102.762 -104.908 -136.684 -72.3403 -90.1316 -14.2279C-43.5795 43.8845 -13.944 3.23364 12.7745 11.594Z" stroke="#E4E4E4"/>
</g>
</svg>
