<svg width="176" height="324" viewBox="0 0 176 324" fill="none" xmlns="http://www.w3.org/2000/svg">
<g id="Group 10">
<path id="Path 3" fill-rule="evenodd" clip-rule="evenodd" d="M229.233 -90.3335C178.511 -106.215 126.357 -132.703 72.9619 -84.3216C19.567 -35.9405 -14.0019 6.44112 7.67596 61.2775C29.3538 116.114 117.841 81.9585 143.551 130.969C169.261 179.98 112.77 224.461 137.125 268.08C161.479 311.7 180.206 339.656 258.475 311.921C336.743 284.187 329.526 213.618 389.046 172.293C448.565 130.969 512.961 69.105 424.587 -41.2832C336.214 -151.671 279.955 -74.4526 229.233 -90.3335Z" stroke="#9E96C6"/>
<path id="Path 3 Copy" fill-rule="evenodd" clip-rule="evenodd" d="M235.714 -64.4178C194.442 -77.3051 152.003 -98.8001 108.556 -59.5391C65.1081 -20.2781 37.7929 14.1143 55.4323 58.6137C73.0716 103.113 145.074 75.3962 165.995 115.168C186.915 154.94 140.948 191.036 160.765 226.433C180.583 261.83 195.821 284.516 259.508 262.01C323.195 239.503 317.323 182.237 365.754 148.702C414.185 115.168 466.585 64.9656 394.675 -24.6137C322.765 -114.193 276.987 -51.5305 235.714 -64.4178Z" stroke="#9E96C6"/>
<path id="Path 3 Copy 2" fill-rule="evenodd" clip-rule="evenodd" d="M247.526 -47.6553C214.074 -58.1696 179.676 -75.7066 144.461 -43.675C109.245 -11.6433 87.1058 16.4162 101.403 52.7217C115.7 89.0272 174.06 66.4139 191.017 98.8624C207.973 131.311 170.716 160.76 186.778 189.639C202.841 218.518 215.192 237.027 266.812 218.665C318.432 200.303 313.673 153.581 352.927 126.222C392.182 98.8624 434.653 57.904 376.368 -15.1806C318.083 -88.2652 280.979 -37.141 247.526 -47.6553Z" stroke="#9E96C6"/>
<path id="Path 3 Copy 5" fill-rule="evenodd" clip-rule="evenodd" d="M259.692 -27.4944C232.647 -35.9277 204.839 -49.9938 176.369 -24.3018C147.9 1.39024 130.001 23.8963 141.56 53.0164C153.118 82.1364 200.298 63.9986 214.007 90.025C227.715 116.051 197.595 139.672 210.58 162.836C223.566 185.999 233.551 200.845 275.283 186.117C317.015 171.389 313.167 133.914 344.902 111.97C376.637 90.025 410.973 57.173 363.853 -1.44695C316.733 -60.0669 286.736 -19.061 259.692 -27.4944Z" stroke="#9E96C6"/>
<path id="Path 3 Copy 4" fill-rule="evenodd" clip-rule="evenodd" d="M262.21 -13.5863C240.162 -20.4863 217.491 -31.995 194.281 -10.9742C171.071 10.0466 156.479 28.4606 165.902 52.2861C175.325 76.1116 213.789 61.2716 224.965 82.5659C236.141 103.86 211.585 123.187 222.172 142.138C232.759 161.09 240.899 173.237 274.921 161.186C308.944 149.136 305.807 118.475 331.679 100.521C357.552 82.5659 385.544 55.687 347.129 7.72522C308.714 -40.2365 284.259 -6.68628 262.21 -13.5863Z" stroke="#9E96C6"/>
</g>
</svg>
